HIERARCHY
ROOT Root
{
	OFFSET 0.00000 0.00000 0.00000
	CHANNELS 6 Xposition Yposition Zposition Zrotation Xrotation Yrotation
	JOINT Hips
	{
		OFFSET 0 0 0	
		CHANNELS 3 Zrotation Xrotation Yrotation
		JOINT Spine
		{
			OFFSET 0 4 0	
			CHANNELS 3 Zrotation Xrotation Yrotation
			JOINT Spine1
			{
				OFFSET 0 19.4 0	
				CHANNELS 3 Zrotation Xrotation Yrotation
				JOINT Spine2
				{
					OFFSET 0 16.6 0	
					CHANNELS 3 Zrotation Xrotation Yrotation
					JOINT LeftCollar
					{
						OFFSET 0 10 0	
						CHANNELS 3 Zrotation Xrotation Yrotation
						JOINT LeftArm
						{
							OFFSET 15.6 -2 3	
							CHANNELS 3 Zrotation Xrotation Yrotation
							JOINT LeftForeArm
							{
								OFFSET 3.5 -27 -1	
								CHANNELS 3 Zrotation Xrotation Yrotation
								JOINT LeftHand
								{
									OFFSET 1 -27 1	
									CHANNELS 3 Zrotation Xrotation Yrotation
									End Site
									{
										OFFSET 0 -15 0
									}
								}
							}
						}
					}
					JOINT RightCollar
					{
						OFFSET 0 10 0	
						CHANNELS 3 Zrotation Xrotation Yrotation
						JOINT RightArm
						{
							OFFSET -15.6 -2 3	
							CHANNELS 3 Zrotation Xrotation Yrotation
							JOINT RightForeArm
							{
								OFFSET -3.5 -27 -1	
								CHANNELS 3 Zrotation Xrotation Yrotation
								JOINT RightHand
								{
									OFFSET -1 -27 1	
									CHANNELS 3 Zrotation Xrotation Yrotation
									End Site
									{
										OFFSET 0 -15 0
									}
								}
							}
						}
					}
					JOINT Neck
					{
						OFFSET 0 10 0	
						CHANNELS 3 Zrotation Xrotation Yrotation
						JOINT Head
						{
							OFFSET 0 12.7 3	
							CHANNELS 3 Zrotation Xrotation Yrotation
							End Site
							{
								OFFSET 0 12.7 3
							}
						}
					}
				}
			}
		}
	}
	JOINT LeftHip
	{
		OFFSET 0 0 0	
		CHANNELS 3 Zrotation Xrotation Yrotation
		JOINT LeftUpLeg
		{
			OFFSET 8.8 -6 0	
			CHANNELS 3 Zrotation Xrotation Yrotation
			JOINT LeftLeg
			{
				OFFSET 0 -39 2	
				CHANNELS 3 Zrotation Xrotation Yrotation
				JOINT LeftFoot
				{
					OFFSET 0 -43 -2	
					CHANNELS 3 Zrotation Xrotation Yrotation
					JOINT LeftFootFront
					{
						OFFSET 0 -7 8.5	
						CHANNELS 3 Zrotation Xrotation Yrotation
						End Site
						{
							OFFSET 0 -0.5 9
						}
					}
				}
				JOINT LeftHeel
				{
					OFFSET 0 -43 -2	
					CHANNELS 3 Zrotation Xrotation Yrotation
					End Site
					{
						OFFSET 0 -7.5 -5
					}
				}
			}
		}
	}
	JOINT RightHip
	{
		OFFSET 0 0 0	
		CHANNELS 3 Zrotation Xrotation Yrotation
		JOINT RightUpLeg
		{
			OFFSET -8.8 -6 0	
			CHANNELS 3 Zrotation Xrotation Yrotation
			JOINT RightLeg
			{
				OFFSET 0 -39 2	
				CHANNELS 3 Zrotation Xrotation Yrotation
				JOINT RightFoot
				{
					OFFSET 0 -43 -2	
					CHANNELS 3 Zrotation Xrotation Yrotation
					JOINT RightFootFront
					{
						OFFSET 0 -7 8.5	
						CHANNELS 3 Zrotation Xrotation Yrotation
						End Site
						{
							OFFSET 0 -0.5 9
						}
					}
				}
				JOINT RightHeel
				{
					OFFSET 0 -43 -2	
					CHANNELS 3 Zrotation Xrotation Yrotation
					End Site
					{
						OFFSET 0 -7.5 -5
					}
				}
			}
		}
	}
}
MOTION
Frames: 40
Frame Time: 0.025
0 95.5 0 -0 0 -0 -0 0 -0 -0 0 -0 -7.8791 17.437 13.504 -0 0 -0 -0 0 -0 11.143 -34.004 14.68 11.716 -45.651 -2.5462 -0 0 -0 -0 0 -0 4.6335 -33.552 1.4011 42.448 -11.737 -15.962 -0 0 -0 -0 0 -0 -0 0 -0 -0 0 -0 -0 0 -0 -0 0 -0 -0 0 -0 -0 0 -0 -0 0 -0 -0 0 -0 -0 0 -0 -0 0 -0 -0 0 -0 -0 0 -0 -0 0 -0 
0 95.5 0 -0 0 -0 -0 0 -0 -0 0 -0 -7.8715 17.431 13.493 -0 0 -0 -0 0 -0 11.135 -33.989 14.684 11.722 -45.649 -2.5539 -0 0 -0 -0 0 -0 4.6411 -33.551 1.4048 42.449 -11.721 -15.981 -0 0 -0 -0 0 -0 -0 0 -0 -0 0 -0 -0 0 -0 -0 0 -0 -0 0 -0 -0 0 -0 -0 0 -0 -0 0 -0 -0 0 -0 -0 0 -0 -0 0 -0 -0 0 -0 -0 0 -0 
0 95.5 0 -0 0 -0 -0 0 -0 -0 0 -0 -7.8595 17.427 13.481 -0 0 -0 -0 0 -0 11.121 -33.972 14.687 11.729 -45.645 -2.5631 -0 0 -0 -0 0 -0 4.6483 -33.554 1.4018 42.449 -11.697 -16.002 -0 0 -0 -0 0 -0 -0 0 -0 -0 0 -0 -0 0 -0 -0 0 -0 -0 0 -0 -0 0 -0 -0 0 -0 -0 0 -0 -0 0 -0 -0 0 -0 -0 0 -0 -0 0 -0 -0 0 -0 
0 95.5 0 -0 0 -0 -0 0 -0 -0 0 -0 -7.8472 17.428 13.474 -0 0 -0 -0 0 -0 11.103 -33.961 14.685 11.73 -45.642 -2.5686 -0 0 -0 -0 0 -0 4.651 -33.563 1.3804 42.449 -11.67 -16.003 -0 0 -0 -0 0 -0 -0 0 -0 -0 0 -0 -0 0 -0 -0 0 -0 -0 0 -0 -0 0 -0 -0 0 -0 -0 0 -0 -0 0 -0 -0 0 -0 -0 0 -0 -0 0 -0 -0 0 -0 
0 95.5 0 -0 0 -0 -0 0 -0 -0 0 -0 -7.8365 17.433 13.473 -0 0 -0 -0 0 -0 11.084 -33.954 14.682 11.72 -45.639 -2.572 -0 0 -0 -0 0 -0 4.6493 -33.571 1.3503 42.446 -11.653 -15.983 -0 0 -0 -0 0 -0 -0 0 -0 -0 0 -0 -0 0 -0 -0 0 -0 -0 0 -0 -0 0 -0 -0 0 -0 -0 0 -0 -0 0 -0 -0 0 -0 -0 0 -0 -0 0 -0 -0 0 -0 
0 95.5 0 -0 0 -0 -0 0 -0 -0 0 -0 -7.8267 17.437 13.473 -0 0 -0 -0 0 -0 11.072 -33.946 14.686 11.7 -45.638 -2.5786 -0 0 -0 -0 0 -0 4.6442 -33.573 1.3335 42.442 -11.658 -15.961 -0 0 -0 -0 0 -0 -0 0 -0 -0 0 -0 -0 0 -0 -0 0 -0 -0 0 -0 -0 0 -0 -0 0 -0 -0 0 -0 -0 0 -0 -0 0 -0 -0 0 -0 -0 0 -0 -0 0 -0 
0 95.5 0 -0 0 -0 -0 0 -0 -0 0 -0 -7.8183 17.443 13.472 -0 0 -0 -0 0 -0 11.068 -33.94 14.691 11.688 -45.635 -2.5767 -0 0 -0 -0 0 -0 4.6364 -33.57 1.3343 42.443 -11.678 -15.953 -0 0 -0 -0 0 -0 -0 0 -0 -0 0 -0 -0 0 -0 -0 0 -0 -0 0 -0 -0 0 -0 -0 0 -0 -0 0 -0 -0 0 -0 -0 0 -0 -0 0 -0 -0 0 -0 -0 0 -0 
0 95.5 0 -0 0 -0 -0 0 -0 -0 0 -0 -7.8118 17.448 13.47 -0 0 -0 -0 0 -0 11.07 -33.938 14.685 11.698 -45.626 -2.5445 -0 0 -0 -0 0 -0 4.6286 -33.567 1.3406 42.449 -11.698 -15.952 -0 0 -0 -0 0 -0 -0 0 -0 -0 0 -0 -0 0 -0 -0 0 -0 -0 0 -0 -0 0 -0 -0 0 -0 -0 0 -0 -0 0 -0 -0 0 -0 -0 0 -0 -0 0 -0 -0 0 -0 
0 95.5 0 -0 0 -0 -0 0 -0 -0 0 -0 -7.8075 17.453 13.465 -0 0 -0 -0 0 -0 11.072 -33.938 14.67 11.733 -45.618 -2.4774 -0 0 -0 -0 0 -0 4.6242 -33.567 1.3423 42.457 -11.707 -15.943 -0 0 -0 -0 0 -0 -0 0 -0 -0 0 -0 -0 0 -0 -0 0 -0 -0 0 -0 -0 0 -0 -0 0 -0 -0 0 -0 -0 0 -0 -0 0 -0 -0 0 -0 -0 0 -0 -0 0 -0 
0 95.5 0 -0 0 -0 -0 0 -0 -0 0 -0 -7.8067 17.46 13.457 -0 0 -0 -0 0 -0 11.074 -33.942 14.656 11.783 -45.614 -2.3909 -0 0 -0 -0 0 -0 4.6259 -33.57 1.34 42.467 -11.71 -15.922 -0 0 -0 -0 0 -0 -0 0 -0 -0 0 -0 -0 0 -0 -0 0 -0 -0 0 -0 -0 0 -0 -0 0 -0 -0 0 -0 -0 0 -0 -0 0 -0 -0 0 -0 -0 0 -0 -0 0 -0 
0 95.5 0 -0 0 -0 -0 0 -0 -0 0 -0 -7.8102 17.466 13.448 -0 0 -0 -0 0 -0 11.076 -33.945 14.654 11.83 -45.617 -2.3122 -0 0 -0 -0 0 -0 4.6337 -33.569 1.3428 42.477 -11.715 -15.896 -0 0 -0 -0 0 -0 -0 0 -0 -0 0 -0 -0 0 -0 -0 0 -0 -0 0 -0 -0 0 -0 -0 0 -0 -0 0 -0 -0 0 -0 -0 0 -0 -0 0 -0 -0 0 -0 -0 0 -0 
0 95.5 0 -0 0 -0 -0 0 -0 -0 0 -0 -7.8156 17.468 13.437 -0 0 -0 -0 0 -0 11.074 -33.941 14.671 11.859 -45.628 -2.266 -0 0 -0 -0 0 -0 4.6428 -33.564 1.3576 42.488 -11.73 -15.875 -0 0 -0 -0 0 -0 -0 0 -0 -0 0 -0 -0 0 -0 -0 0 -0 -0 0 -0 -0 0 -0 -0 0 -0 -0 0 -0 -0 0 -0 -0 0 -0 -0 0 -0 -0 0 -0 -0 0 -0 
0 95.5 0 -0 0 -0 -0 0 -0 -0 0 -0 -7.8217 17.47 13.43 -0 0 -0 -0 0 -0 11.064 -33.938 14.696 11.876 -45.642 -2.2547 -0 0 -0 -0 0 -0 4.6473 -33.56 1.3792 42.498 -11.751 -15.865 -0 0 -0 -0 0 -0 -0 0 -0 -0 0 -0 -0 0 -0 -0 0 -0 -0 0 -0 -0 0 -0 -0 0 -0 -0 0 -0 -0 0 -0 -0 0 -0 -0 0 -0 -0 0 -0 -0 0 -0 
0 95.5 0 -0 0 -0 -0 0 -0 -0 0 -0 -7.8271 17.475 13.428 -0 0 -0 -0 0 -0 11.05 -33.941 14.715 11.89 -45.652 -2.2606 -0 0 -0 -0 0 -0 4.6455 -33.562 1.3986 42.51 -11.772 -15.862 -0 0 -0 -0 0 -0 -0 0 -0 -0 0 -0 -0 0 -0 -0 0 -0 -0 0 -0 -0 0 -0 -0 0 -0 -0 0 -0 -0 0 -0 -0 0 -0 -0 0 -0 -0 0 -0 -0 0 -0 
0 95.5 0 -0 0 -0 -0 0 -0 -0 0 -0 -7.8298 17.483 13.433 -0 0 -0 -0 0 -0 11.032 -33.955 14.721 11.903 -45.653 -2.2662 -0 0 -0 -0 0 -0 4.6347 -33.569 1.4062 42.521 -11.79 -15.859 -0 0 -0 -0 0 -0 -0 0 -0 -0 0 -0 -0 0 -0 -0 0 -0 -0 0 -0 -0 0 -0 -0 0 -0 -0 0 -0 -0 0 -0 -0 0 -0 -0 0 -0 -0 0 -0 -0 0 -0 
0 95.5 0 -0 0 -0 -0 0 -0 -0 0 -0 -7.8266 17.493 13.455 -0 0 -0 -0 0 -0 11.001 -33.974 14.698 11.911 -45.645 -2.2665 -0 0 -0 -0 0 -0 4.6074 -33.578 1.3929 42.528 -11.808 -15.854 -0 0 -0 -0 0 -0 -0 0 -0 -0 0 -0 -0 0 -0 -0 0 -0 -0 0 -0 -0 0 -0 -0 0 -0 -0 0 -0 -0 0 -0 -0 0 -0 -0 0 -0 -0 0 -0 -0 0 -0 
0 95.5 0 -0 0 -0 -0 0 -0 -0 0 -0 -7.8194 17.507 13.493 -0 0 -0 -0 0 -0 10.957 -33.996 14.648 11.915 -45.634 -2.2628 -0 0 -0 -0 0 -0 4.5661 -33.59 1.3621 42.531 -11.829 -15.856 -0 0 -0 -0 0 -0 -0 0 -0 -0 0 -0 -0 0 -0 -0 0 -0 -0 0 -0 -0 0 -0 -0 0 -0 -0 0 -0 -0 0 -0 -0 0 -0 -0 0 -0 -0 0 -0 -0 0 -0 
0 95.5 0 -0 0 -0 -0 0 -0 -0 0 -0 -7.8127 17.517 13.524 -0 0 -0 -0 0 -0 10.924 -34.013 14.601 11.913 -45.623 -2.2562 -0 0 -0 -0 0 -0 4.5328 -33.597 1.3386 42.534 -11.851 -15.865 -0 0 -0 -0 0 -0 -0 0 -0 -0 0 -0 -0 0 -0 -0 0 -0 -0 0 -0 -0 0 -0 -0 0 -0 -0 0 -0 -0 0 -0 -0 0 -0 -0 0 -0 -0 0 -0 -0 0 -0 
0 95.5 0 -0 0 -0 -0 0 -0 -0 0 -0 -7.8055 17.52 13.532 -0 0 -0 -0 0 -0 10.918 -34.018 14.583 11.908 -45.61 -2.2471 -0 0 -0 -0 0 -0 4.5185 -33.593 1.3391 42.536 -11.869 -15.873 -0 0 -0 -0 0 -0 -0 0 -0 -0 0 -0 -0 0 -0 -0 0 -0 -0 0 -0 -0 0 -0 -0 0 -0 -0 0 -0 -0 0 -0 -0 0 -0 -0 0 -0 -0 0 -0 -0 0 -0 
0 95.5 0 -0 0 -0 -0 0 -0 -0 0 -0 -7.7975 17.531 13.521 -0 0 -0 -0 0 -0 10.93 -34.028 14.59 11.905 -45.596 -2.2314 -0 0 -0 -0 0 -0 4.5143 -33.597 1.3612 42.538 -11.887 -15.877 -0 0 -0 -0 0 -0 -0 0 -0 -0 0 -0 -0 0 -0 -0 0 -0 -0 0 -0 -0 0 -0 -0 0 -0 -0 0 -0 -0 0 -0 -0 0 -0 -0 0 -0 -0 0 -0 -0 0 -0 
0 95.5 0 -0 0 -0 -0 0 -0 -0 0 -0 -7.7917 17.559 13.514 -0 0 -0 -0 0 -0 10.944 -34.051 14.601 11.906 -45.589 -2.2061 -0 0 -0 -0 0 -0 4.506 -33.616 1.3819 42.544 -11.91 -15.875 -0 0 -0 -0 0 -0 -0 0 -0 -0 0 -0 -0 0 -0 -0 0 -0 -0 0 -0 -0 0 -0 -0 0 -0 -0 0 -0 -0 0 -0 -0 0 -0 -0 0 -0 -0 0 -0 -0 0 -0 
0 95.5 0 -0 0 -0 -0 0 -0 -0 0 -0 -7.7908 17.596 13.518 -0 0 -0 -0 0 -0 10.95 -34.079 14.599 11.914 -45.591 -2.1732 -0 0 -0 -0 0 -0 4.4889 -33.639 1.3921 42.555 -11.946 -15.857 -0 0 -0 -0 0 -0 -0 0 -0 -0 0 -0 -0 0 -0 -0 0 -0 -0 0 -0 -0 0 -0 -0 0 -0 -0 0 -0 -0 0 -0 -0 0 -0 -0 0 -0 -0 0 -0 -0 0 -0 
0 95.5 0 -0 0 -0 -0 0 -0 -0 0 -0 -7.7975 17.634 13.526 -0 0 -0 -0 0 -0 10.953 -34.105 14.586 11.94 -45.597 -2.1339 -0 0 -0 -0 0 -0 4.473 -33.653 1.4115 42.568 -12.003 -15.823 -0 0 -0 -0 0 -0 -0 0 -0 -0 0 -0 -0 0 -0 -0 0 -0 -0 0 -0 -0 0 -0 -0 0 -0 -0 0 -0 -0 0 -0 -0 0 -0 -0 0 -0 -0 0 -0 -0 0 -0 
0 95.5 0 -0 0 -0 -0 0 -0 -0 0 -0 -7.8098 17.673 13.528 -0 0 -0 -0 0 -0 10.958 -34.134 14.573 11.983 -45.602 -2.0945 -0 0 -0 -0 0 -0 4.4626 -33.663 1.455 42.58 -12.077 -15.783 -0 0 -0 -0 0 -0 -0 0 -0 -0 0 -0 -0 0 -0 -0 0 -0 -0 0 -0 -0 0 -0 -0 0 -0 -0 0 -0 -0 0 -0 -0 0 -0 -0 0 -0 -0 0 -0 -0 0 -0 
0 95.5 0 -0 0 -0 -0 0 -0 -0 0 -0 -7.8194 17.716 13.523 -0 0 -0 -0 0 -0 10.961 -34.167 14.571 12.024 -45.604 -2.064 -0 0 -0 -0 0 -0 4.449 -33.676 1.5153 42.591 -12.145 -15.76 -0 0 -0 -0 0 -0 -0 0 -0 -0 0 -0 -0 0 -0 -0 0 -0 -0 0 -0 -0 0 -0 -0 0 -0 -0 0 -0 -0 0 -0 -0 0 -0 -0 0 -0 -0 0 -0 -0 0 -0 
0 95.5 0 -0 0 -0 -0 0 -0 -0 0 -0 -7.824 17.756 13.515 -0 0 -0 -0 0 -0 10.962 -34.2 14.571 12.06 -45.605 -2.0343 -0 0 -0 -0 0 -0 4.4284 -33.698 1.5698 42.601 -12.188 -15.757 -0 0 -0 -0 0 -0 -0 0 -0 -0 0 -0 -0 0 -0 -0 0 -0 -0 0 -0 -0 0 -0 -0 0 -0 -0 0 -0 -0 0 -0 -0 0 -0 -0 0 -0 -0 0 -0 -0 0 -0 
0 95.5 0 -0 0 -0 -0 0 -0 -0 0 -0 -7.8316 17.789 13.507 -0 0 -0 -0 0 -0 10.97 -34.222 14.559 12.106 -45.612 -1.9821 -0 0 -0 -0 0 -0 4.4128 -33.725 1.6052 42.612 -12.204 -15.753 -0 0 -0 -0 0 -0 -0 0 -0 -0 0 -0 -0 0 -0 -0 0 -0 -0 0 -0 -0 0 -0 -0 0 -0 -0 0 -0 -0 0 -0 -0 0 -0 -0 0 -0 -0 0 -0 -0 0 -0 
0 95.5 0 -0 0 -0 -0 0 -0 -0 0 -0 -7.8466 17.82 13.502 -0 0 -0 -0 0 -0 10.985 -34.233 14.531 12.163 -45.625 -1.8997 -0 0 -0 -0 0 -0 4.4068 -33.751 1.6252 42.622 -12.212 -15.729 -0 0 -0 -0 0 -0 -0 0 -0 -0 0 -0 -0 0 -0 -0 0 -0 -0 0 -0 -0 0 -0 -0 0 -0 -0 0 -0 -0 0 -0 -0 0 -0 -0 0 -0 -0 0 -0 -0 0 -0 
0 95.5 0 -0 0 -0 -0 0 -0 -0 0 -0 -7.8666 17.851 13.501 -0 0 -0 -0 0 -0 11.004 -34.239 14.504 12.216 -45.643 -1.8112 -0 0 -0 -0 0 -0 4.4048 -33.772 1.6488 42.63 -12.237 -15.698 -0 0 -0 -0 0 -0 -0 0 -0 -0 0 -0 -0 0 -0 -0 0 -0 -0 0 -0 -0 0 -0 -0 0 -0 -0 0 -0 -0 0 -0 -0 0 -0 -0 0 -0 -0 0 -0 -0 0 -0 
0 95.5 0 -0 0 -0 -0 0 -0 -0 0 -0 -7.8878 17.878 13.497 -0 0 -0 -0 0 -0 11.031 -34.244 14.497 12.257 -45.66 -1.7317 -0 0 -0 -0 0 -0 4.4052 -33.788 1.6922 42.639 -12.279 -15.679 -0 0 -0 -0 0 -0 -0 0 -0 -0 0 -0 -0 0 -0 -0 0 -0 -0 0 -0 -0 0 -0 -0 0 -0 -0 0 -0 -0 0 -0 -0 0 -0 -0 0 -0 -0 0 -0 -0 0 -0 
0 95.5 0 -0 0 -0 -0 0 -0 -0 0 -0 -7.9097 17.896 13.48 -0 0 -0 -0 0 -0 11.073 -34.247 14.508 12.305 -45.673 -1.6465 -0 0 -0 -0 0 -0 4.4165 -33.794 1.7551 42.651 -12.324 -15.67 -0 0 -0 -0 0 -0 -0 0 -0 -0 0 -0 -0 0 -0 -0 0 -0 -0 0 -0 -0 0 -0 -0 0 -0 -0 0 -0 -0 0 -0 -0 0 -0 -0 0 -0 -0 0 -0 -0 0 -0 
0 95.5 0 -0 0 -0 -0 0 -0 -0 0 -0 -7.9363 17.919 13.456 -0 0 -0 -0 0 -0 11.121 -34.26 14.528 12.372 -45.684 -1.5455 -0 0 -0 -0 0 -0 4.4402 -33.804 1.815 42.668 -12.356 -15.657 -0 0 -0 -0 0 -0 -0 0 -0 -0 0 -0 -0 0 -0 -0 0 -0 -0 0 -0 -0 0 -0 -0 0 -0 -0 0 -0 -0 0 -0 -0 0 -0 -0 0 -0 -0 0 -0 -0 0 -0 
0 95.5 0 -0 0 -0 -0 0 -0 -0 0 -0 -7.9653 17.957 13.437 -0 0 -0 -0 0 -0 11.157 -34.293 14.546 12.451 -45.702 -1.4414 -0 0 -0 -0 0 -0 4.46 -33.83 1.8486 42.69 -12.374 -15.627 -0 0 -0 -0 0 -0 -0 0 -0 -0 0 -0 -0 0 -0 -0 0 -0 -0 0 -0 -0 0 -0 -0 0 -0 -0 0 -0 -0 0 -0 -0 0 -0 -0 0 -0 -0 0 -0 -0 0 -0 
0 95.5 0 -0 0 -0 -0 0 -0 -0 0 -0 -7.994 18.001 13.417 -0 0 -0 -0 0 -0 11.18 -34.329 14.569 12.539 -45.738 -1.3419 -0 0 -0 -0 0 -0 4.4758 -33.863 1.8754 42.712 -12.393 -15.583 -0 0 -0 -0 0 -0 -0 0 -0 -0 0 -0 -0 0 -0 -0 0 -0 -0 0 -0 -0 0 -0 -0 0 -0 -0 0 -0 -0 0 -0 -0 0 -0 -0 0 -0 -0 0 -0 -0 0 -0 
0 95.5 0 -0 0 -0 -0 0 -0 -0 0 -0 -8.0239 18.047 13.391 -0 0 -0 -0 0 -0 11.196 -34.353 14.595 12.638 -45.792 -1.2424 -0 0 -0 -0 0 -0 4.4943 -33.893 1.9196 42.732 -12.427 -15.538 -0 0 -0 -0 0 -0 -0 0 -0 -0 0 -0 -0 0 -0 -0 0 -0 -0 0 -0 -0 0 -0 -0 0 -0 -0 0 -0 -0 0 -0 -0 0 -0 -0 0 -0 -0 0 -0 -0 0 -0 
0 95.5 0 -0 0 -0 -0 0 -0 -0 0 -0 -8.0554 18.096 13.364 -0 0 -0 -0 0 -0 11.203 -34.372 14.617 12.744 -45.856 -1.1491 -0 0 -0 -0 0 -0 4.5115 -33.919 1.9814 42.748 -12.474 -15.502 -0 0 -0 -0 0 -0 -0 0 -0 -0 0 -0 -0 0 -0 -0 0 -0 -0 0 -0 -0 0 -0 -0 0 -0 -0 0 -0 -0 0 -0 -0 0 -0 -0 0 -0 -0 0 -0 -0 0 -0 
0 95.5 0 -0 0 -0 -0 0 -0 -0 0 -0 -8.0865 18.15 13.342 -0 0 -0 -0 0 -0 11.197 -34.393 14.633 12.847 -45.919 -1.0684 -0 0 -0 -0 0 -0 4.5209 -33.95 2.0423 42.763 -12.52 -15.479 -0 0 -0 -0 0 -0 -0 0 -0 -0 0 -0 -0 0 -0 -0 0 -0 -0 0 -0 -0 0 -0 -0 0 -0 -0 0 -0 -0 0 -0 -0 0 -0 -0 0 -0 -0 0 -0 -0 0 -0 
0 95.5 0 -0 0 -0 -0 0 -0 -0 0 -0 -8.113 18.205 13.33 -0 0 -0 -0 0 -0 11.176 -34.412 14.63 12.948 -45.972 -0.98087 -0 0 -0 -0 0 -0 4.5203 -33.986 2.082 42.778 -12.55 -15.462 -0 0 -0 -0 0 -0 -0 0 -0 -0 0 -0 -0 0 -0 -0 0 -0 -0 0 -0 -0 0 -0 -0 0 -0 -0 0 -0 -0 0 -0 -0 0 -0 -0 0 -0 -0 0 -0 -0 0 -0 
0 95.5 0 -0 0 -0 -0 0 -0 -0 0 -0 -8.135 18.258 13.324 -0 0 -0 -0 0 -0 11.148 -34.427 14.606 13.038 -46.013 -0.87975 -0 0 -0 -0 0 -0 4.5137 -34.026 2.0969 42.79 -12.563 -15.442 -0 0 -0 -0 0 -0 -0 0 -0 -0 0 -0 -0 0 -0 -0 0 -0 -0 0 -0 -0 0 -0 -0 0 -0 -0 0 -0 -0 0 -0 -0 0 -0 -0 0 -0 -0 0 -0 -0 0 -0 
0 95.5 0 -0 0 -0 -0 0 -0 -0 0 -0 -8.1569 18.309 13.327 -0 0 -0 -0 0 -0 11.115 -34.444 14.577 13.097 -46.04 -0.80368 -0 0 -0 -0 0 -0 4.5039 -34.067 2.0942 42.797 -12.571 -15.415 -0 0 -0 -0 0 -0 -0 0 -0 -0 0 -0 -0 0 -0 -0 0 -0 -0 0 -0 -0 0 -0 -0 0 -0 -0 0 -0 -0 0 -0 -0 0 -0 -0 0 -0 -0 0 -0 -0 0 -0 
